HIERARCHY
ROOT Hips
{
	OFFSET 0.000000 0.000000 0.000000
	CHANNELS 6 Xposition Yposition Zposition Zrotation Yrotation Xrotation 
	JOINT LHipJoint
	{
		OFFSET 0.000000 0.000000 0.000000
		CHANNELS 3 Zrotation Yrotation Xrotation
		JOINT LeftUpLeg
		{
			OFFSET 1.363060 -1.794630 0.839290
			CHANNELS 3 Zrotation Yrotation Xrotation
			JOINT LeftLeg
			{
				OFFSET 2.448110 -6.726130 0.000000
				CHANNELS 3 Zrotation Yrotation Xrotation
				JOINT LeftFoot
				{
					OFFSET 2.562200 -7.039590 0.000000
					CHANNELS 3 Zrotation Yrotation Xrotation
					JOINT LeftToeBase
					{
						OFFSET 0.157640 -0.433110 2.322550
						CHANNELS 3 Zrotation Yrotation Xrotation
						End Site
						{
							OFFSET 0.000000 0.000000 0.000000
						}
					}
				}
			}
		}
	}
	JOINT RHipJoint
	{
		OFFSET 0.000000 0.000000 0.000000
		CHANNELS 3 Zrotation Yrotation Xrotation
		JOINT RightUpLeg
		{
			OFFSET -1.305520 -1.794630 0.839290
			CHANNELS 3 Zrotation Yrotation Xrotation
			JOINT RightLeg
			{
				OFFSET -2.542530 -6.985550 0.000000
				CHANNELS 3 Zrotation Yrotation Xrotation
				JOINT RightFoot
				{
					OFFSET -2.568260 -7.056230 0.000000
					CHANNELS 3 Zrotation Yrotation Xrotation
					JOINT RightToeBase
					{
						OFFSET -0.164730 -0.452590 2.363150
						CHANNELS 3 Zrotation Yrotation Xrotation
						End Site
						{
							OFFSET 0.000000 0.000000 0.000000
						}
					}
				}
			}
		}
	}
	JOINT LowerBack
	{
		OFFSET 0.000000 0.000000 0.000000
		CHANNELS 3 Zrotation Yrotation Xrotation
		JOINT Spine
		{
			OFFSET 0.028270 2.035590 -0.193380
			CHANNELS 3 Zrotation Yrotation Xrotation
			JOINT Spine1
			{
				OFFSET 0.056720 2.048850 -0.042750
				CHANNELS 3 Zrotation Yrotation Xrotation
				JOINT Neck
				{
					OFFSET 0.000000 0.000000 0.000000
					CHANNELS 3 Zrotation Yrotation Xrotation
					JOINT Neck1
					{
						OFFSET -0.054170 1.746240 0.172020
						CHANNELS 3 Zrotation Yrotation Xrotation
						JOINT Head
						{
							OFFSET 0.104070 1.761360 -0.123970
							CHANNELS 3 Zrotation Yrotation Xrotation
							End Site
							{
								OFFSET 0.000000 0.000000 0.000000
							}
						}
					}
				}
				JOINT LeftShoulder
				{
					OFFSET 0.000000 0.000000 0.000000
					CHANNELS 3 Zrotation Yrotation Xrotation
					JOINT LeftArm
					{
						OFFSET 3.362410 1.200890 -0.311210
						CHANNELS 3 Zrotation Yrotation Xrotation
						JOINT LeftForeArm
						{
							OFFSET 4.983000 -0.000000 -0.000000
							CHANNELS 3 Zrotation Yrotation Xrotation
							JOINT LeftHand
							{
								OFFSET 3.483560 -0.000000 -0.000000
								CHANNELS 3 Zrotation Yrotation Xrotation
								JOINT LeftFingerBase
								{
									OFFSET 0.000000 0.000000 0.000000
									CHANNELS 3 Zrotation Yrotation Xrotation
									JOINT LeftHandIndex1
									{
										OFFSET 0.715260 -0.000000 -0.000000
										CHANNELS 3 Zrotation Yrotation Xrotation
										End Site
										{
											OFFSET 0.000000 0.000000 0.000000
										}
									}
								}
								JOINT LThumb
								{
									OFFSET 0.000000 0.000000 0.000000
									CHANNELS 3 Zrotation Yrotation Xrotation
									End Site
									{
										OFFSET 0.000000 0.000000 0.000000
									}
								}
							}
						}
					}
				}
				JOINT RightShoulder
				{
					OFFSET 0.000000 0.000000 0.000000
					CHANNELS 3 Zrotation Yrotation Xrotation
					JOINT RightArm
					{
						OFFSET -3.136600 1.374050 -0.404650
						CHANNELS 3 Zrotation Yrotation Xrotation
						JOINT RightForeArm
						{
							OFFSET -5.241900 -0.000000 -0.000000
							CHANNELS 3 Zrotation Yrotation Xrotation
							JOINT RightHand
							{
								OFFSET -3.444170 -0.000000 -0.000000
								CHANNELS 3 Zrotation Yrotation Xrotation
								JOINT RightFingerBase
								{
									OFFSET 0.000000 0.000000 0.000000
									CHANNELS 3 Zrotation Yrotation Xrotation
									JOINT RightHandIndex1
									{
										OFFSET -0.622530 -0.000000 -0.000000
										CHANNELS 3 Zrotation Yrotation Xrotation
										End Site
										{
											OFFSET 0.000000 0.000000 0.000000
										}
									}
								}
								JOINT RThumb
								{
									OFFSET 0.000000 0.000000 0.000000
									CHANNELS 3 Zrotation Yrotation Xrotation
									End Site
									{
										OFFSET 0.000000 0.000000 0.000000
									}
								}
							}
						}
					}
				}
			}
		}
	}
}
MOTION
Frames: 8
Frame Time: 0.008333
-1.569557 16.647258 0.304489 -158.441200 76.717362 -147.268785 -9.412396 0.326943 -0.994049 -24.222624 13.932030 -43.467228 -2.863957 0.312825 23.264922 3.654011 16.327283 -14.069963 -1.344801 0.000000 -1.763100 10.652070 -3.773828 -2.943691 0.288265 -17.920375 -9.191147 0.556745 -3.310026 43.666124 0.106802 11.424468 17.859586 4.762800 -0.000000 -88.839200 -6.978904 0.105348 4.265818 -2.214519 0.466991 -2.095673 -6.000644 0.442266 0.835362 5.683513 -4.108287 -7.424774 -2.986276 -0.218895 -0.126821 0.000000 0.000000 0.000000 -7.032702 13.376941 2.579734 -65.447215 16.324987 6.200207 -4.251076 -27.536383 -0.024241 -12.282986 6.495309 -0.703524 -0.075315 -0.072273 -0.000000 0.000000 0.000000 0.000000 0.000000 0.000000 0.000000 9.833043 0.859332 1.800715 43.981941 28.245949 18.541501 1.633978 58.702352 0.033379 12.812306 6.429172 0.754474 -0.128512 -0.216238 0.000000 0.000000 0.000000 0.000000 0.000000 0.000000 0.000000 
-1.439827 16.650850 0.237447 -160.037309 76.185671 -148.761458 -9.419603 0.375792 -0.976920 -24.179701 13.269381 -43.109488 -2.802539 0.394281 24.173565 3.678276 16.401627 -14.382108 -1.459800 0.000000 -0.464100 10.755150 -3.592086 -2.937204 -0.105870 -17.477972 -10.608060 0.295239 -3.440456 46.535100 -0.056325 11.042465 19.401808 4.964900 -0.000001 -86.646000 -7.171399 0.009231 4.325546 -2.255791 0.377530 -2.099545 -6.034763 0.350720 0.763580 5.492333 -4.088686 -7.383007 -3.030055 -0.222087 -0.122389 0.000000 0.000000 0.000000 -7.136817 12.850104 2.640668 -65.255469 15.340240 6.465743 -4.260010 -27.054245 -0.022969 -12.074622 6.638543 -0.705687 -0.077003 -0.065915 -0.000000 0.000000 0.000000 0.000000 0.000000 0.000000 0.000000 9.765923 0.818935 1.770923 45.042685 27.442834 18.731882 1.671688 58.415903 0.033173 12.812480 6.380354 0.748291 -0.124465 -0.212589 0.000000 0.000000 0.000000 0.000000 0.000000 0.000000 0.000000 
-1.316287 16.656801 0.167171 -161.423288 75.569534 -150.072349 -9.439990 0.406528 -0.971111 -24.076962 12.603082 -42.592337 -2.738991 0.451924 24.890736 3.703448 16.483612 -14.724336 178.411700 -0.000000 -0.472601 10.830020 -3.396792 -2.952094 -0.397193 -16.966886 -11.967673 0.048333 -3.563862 49.315488 -0.233310 10.080013 20.555009 4.820600 -0.000000 -84.303799 -7.247492 -0.070037 4.430706 -2.273063 0.300361 -2.093163 -6.062950 0.271957 0.696761 5.250531 -4.076545 -7.327981 -3.075114 -0.225447 -0.114929 0.000000 0.000000 0.000000 -7.244562 12.302054 2.698521 -65.070951 14.210778 6.772660 -4.262916 -26.593894 -0.021502 -11.821880 6.767625 -0.703142 -0.078495 -0.058816 -0.000000 0.000000 0.000000 0.000000 0.000000 0.000000 0.000000 9.653004 0.762468 1.737386 46.073347 26.575931 18.880744 1.708020 58.104162 0.032814 12.803829 6.336227 0.742105 -0.120551 -0.208552 0.000000 0.000000 0.000000 0.000000 0.000000 0.000000 0.000000 
-1.198213 16.665279 0.093471 -162.574077 74.883355 -151.181564 -9.472933 0.420050 -0.977252 -23.916628 11.954749 -41.910906 -2.676217 0.484227 25.398548 3.726934 16.561261 -15.093106 178.271301 0.000000 -1.101400 10.880038 -3.194269 -2.984612 -0.596169 -16.394797 -13.259590 -0.185718 -3.682366 51.981439 -0.424605 8.542699 21.290824 4.313100 -0.000000 -81.862200 -7.210023 -0.131151 4.573172 -2.267489 0.236983 -2.077524 -6.087304 0.207490 0.638434 4.971327 -4.065735 -7.259490 -3.121982 -0.229019 -0.104311 0.000000 0.000000 0.000000 -7.356720 11.760237 2.750427 -64.893338 12.938942 7.103318 -4.260139 -26.177207 -0.019872 -11.531545 6.871446 -0.695192 -0.079774 -0.051091 -0.000000 0.000000 0.000000 0.000000 0.000000 0.000000 0.000000 9.510816 0.696530 1.700428 47.059750 25.650938 18.996656 1.743697 57.760793 0.032290 12.795057 6.292481 0.735917 -0.116868 -0.203937 0.000000 0.000000 0.000000 0.000000 0.000000 0.000000 0.000000 
-1.084730 16.676498 0.016335 -163.491897 74.142563 -152.091574 -9.517568 0.418185 -0.994404 -23.704472 11.340298 -41.073318 -2.616543 0.491377 25.689863 3.746214 16.623300 -15.478483 178.123200 0.000000 -1.475900 10.908185 -2.989356 -3.028330 -0.713754 -15.764151 -14.478461 -0.407723 -3.795686 54.500587 -0.633071 6.480636 21.611857 3.473899 0.000000 -79.506900 -7.068226 -0.174684 4.740817 -2.241380 0.187390 -2.054124 -6.110088 0.157276 0.592712 4.671062 -4.055455 -7.179184 -3.171008 -0.232812 -0.090853 0.000000 0.000000 0.000000 -7.474205 11.250855 2.793196 -64.721433 11.532270 7.441013 -4.252449 -25.828047 -0.018126 -11.214709 6.938944 -0.681536 -0.080838 -0.042897 -0.000000 0.000000 0.000000 0.000000 0.000000 0.000000 0.000000 9.359894 0.621708 1.660826 47.988825 24.684101 19.095821 1.780018 57.373951 0.031591 12.791272 6.246869 0.729726 -0.113408 -0.198590 0.000000 0.000000 0.000000 0.000000 0.000000 0.000000 0.000000 
-0.974896 16.690534 -0.064145 -164.199143 73.362578 -152.820064 -9.572689 0.403719 -1.020391 -23.449989 10.769492 -40.098956 -2.561589 0.475229 25.769500 3.759045 16.659974 -15.865908 177.973800 0.000000 -1.657800 10.917195 -2.785772 -3.074886 -0.762553 -15.072259 -15.624695 -0.616971 -3.902330 56.842979 -0.860774 3.993411 21.536985 2.377500 0.000000 -77.207000 -6.836107 -0.202690 4.918967 -2.197745 0.150304 -2.025125 -6.133029 0.119935 0.562644 4.365576 -4.040574 -7.088580 -3.221728 -0.236778 -0.074779 0.000000 0.000000 0.000000 -7.596133 10.801296 2.824758 -64.554190 9.997389 7.778516 -4.241338 -25.565754 -0.016306 -10.884911 6.957979 -0.662076 -0.081726 -0.034378 -0.000000 0.000000 0.000000 0.000000 0.000000 0.000000 0.000000 9.214961 0.543275 1.617941 48.858954 23.682682 19.186353 1.818163 56.934464 0.030716 12.801336 6.193753 0.723431 -0.110211 -0.192354 0.000000 0.000000 0.000000 0.000000 0.000000 0.000000 0.000000 
-0.867750 16.707541 -0.147748 -164.728944 72.556184 -153.391609 -9.636922 0.379803 -1.052168 -23.163508 10.245953 -39.014124 -2.512155 0.438687 25.650690 3.763435 16.663210 -16.237088 177.830800 -0.000000 -1.707799 10.909460 -2.586284 -3.114978 -0.755887 -14.313549 -16.701395 -0.811394 -3.999690 58.976153 -1.108072 1.214579 21.113586 1.125500 -0.000000 -75.070000 -6.530631 -0.218463 5.092339 -2.140265 0.123258 -1.992999 -6.158560 0.092894 0.549903 4.072388 -4.029635 -6.990106 -3.273981 -0.240898 -0.056445 0.000000 0.000000 0.000000 -7.723869 10.415286 2.842488 -64.389294 8.369369 8.099228 -4.227734 -25.427513 -0.014468 -10.560657 6.922479 -0.637912 -0.082449 -0.025805 -0.000000 0.000000 0.000000 0.000000 0.000000 0.000000 0.000000 9.097230 0.451815 1.574396 49.663723 22.674947 19.292147 1.860401 56.425013 0.029667 12.824731 6.134467 0.717033 -0.107093 -0.185188 0.000000 0.000000 0.000000 0.000000 0.000000 0.000000 0.000000 
-0.762436 16.727423 -0.234143 -165.119156 71.733074 -153.833676 -9.708677 0.349883 -1.085733 -22.855541 9.767131 -37.850786 -2.468350 0.385559 25.355901 3.757845 16.626764 -16.573854 177.702499 -0.000001 -1.686600 10.887370 -2.393434 -3.139818 -0.708473 -13.483675 -17.717070 -0.988538 -4.085831 60.880570 -1.369997 -1.690343 20.391286 -0.167101 -0.000000 -72.920099 -6.169112 -0.225763 5.245958 -2.072423 0.103186 -1.960781 -6.188062 0.072923 0.553602 3.804580 -4.020058 -6.884236 -3.326626 -0.245101 -0.035632 0.000000 0.000000 0.000000 -7.854613 10.096090 2.846161 -64.226017 6.679052 8.403391 -4.213098 -25.440559 -0.012654 -10.260888 6.827639 -0.610247 -0.083054 -0.017376 -0.000000 0.000000 0.000000 0.000000 0.000000 0.000000 0.000000 9.014977 0.350565 1.530629 50.411308 21.665837 19.417042 1.908156 55.837355 0.028462 12.868191 6.064251 0.710332 -0.104022 -0.177052 0.000000 0.000000 0.000000 0.000000 0.000000 0.000000 0.000000 
